<?xml version="1.0" standalone="no"?>
<!DOCTYPE svg PUBLIC "-//W3C//DTD SVG 1.1//EN" "http://www.w3.org/Graphics/SVG/1.1/DTD/svg11.dtd" >
<svg>
<metadata>
Created by FontForge 20120731 at Sun Oct  2 17:03:31 2016
 By www-data
</metadata>
<defs>
<font id="spdico" horiz-adv-x="1024" >
  <font-face 
    font-family="spdico"
    font-weight="400"
    font-stretch="normal"
    units-per-em="1024"
    panose-1="0 0 0 0 0 0 0 0 0 0"
    ascent="960"
    descent="-64"
    bbox="-0.2 -64 1152 960"
    underline-thickness="0"
    underline-position="0"
    unicode-range="U+0001-FFFD"
  />
<missing-glyph 
 />
    <glyph glyph-name=".notdef" unicode="&#xfffd;" 
 />
    <glyph glyph-name="glyph1" horiz-adv-x="0" 
d="M0 0v0v0v0z" />
    <glyph glyph-name="glyph1" horiz-adv-x="0" 
d="M0 0v0v0v0z" />
    <glyph glyph-name="uni0001" horiz-adv-x="0" 
d="M0 0v0v0v0z" />
    <glyph glyph-name="space" unicode=" " horiz-adv-x="512" 
d="M0 0v0v0v0z" />
    <glyph glyph-name="uniE900" unicode="&#xe900;" 
d="M959 742q-2 37 -29.5 63.5t-65.5 26.5h-96v32q0 40 -28 68t-68 28h-320q-40 0 -68 -28t-28 -68v-32h-96q-38 0 -65.5 -26t-29.5 -64h-1v-70q0 -27 19 -45.5t45 -18.5v0v-544q0 -53 37.5 -90.5t90.5 -37.5h512q53 0 90.5 37.5t37.5 90.5v544q26 0 45 18.5t19 45.5v70h-1v0
zM320 864q0 13 9.5 22.5t22.5 9.5h320q13 0 22.5 -9.5t9.5 -22.5v-32h-384v32zM832 64q0 -27 -19 -45.5t-45 -18.5h-512q-26 0 -45 18.5t-19 45.5v544h640v-544zM896 704v-32h-768v64q0 13 9.5 22.5t22.5 9.5h704q13 0 22.5 -9.5t9.5 -22.5v-32zM288 64h64q13 0 22.5 9.5
t9.5 22.5v416q0 13 -9.5 22.5t-22.5 9.5h-64q-13 0 -22.5 -9.5t-9.5 -22.5v-416q0 -13 9.5 -22.5t22.5 -9.5zM288 512h64v-416h-64v416v0zM480 64h64q13 0 22.5 9.5t9.5 22.5v416q0 13 -9.5 22.5t-22.5 9.5h-64q-13 0 -22.5 -9.5t-9.5 -22.5v-416q0 -13 9.5 -22.5t22.5 -9.5
zM480 512h64v-416h-64v416v0zM672 64h64q13 0 22.5 9.5t9.5 22.5v416q0 13 -9.5 22.5t-22.5 9.5h-64q-13 0 -22.5 -9.5t-9.5 -22.5v-416q0 -13 9.5 -22.5t22.5 -9.5zM672 512h64v-416h-64v416v0z" />
    <glyph glyph-name="uniE901" unicode="&#xe901;" 
d="M996 53q-3 2 -25 15.5t-61 31.5t-92.5 38t-118.5 34q48 60 78.5 133.5t43.5 127.5q9 38 11 90.5t-6.5 110t-29.5 114.5t-57 103q-42 54 -100 81.5t-127 27.5t-127 -28t-100 -81q-36 -46 -57 -103t-29.5 -114.5t-6.5 -110t11 -90.5q13 -54 43.5 -127.5t78.5 -133.5
q-65 -14 -118.5 -34t-92.5 -38t-61 -31.5t-24 -15.5q-18 -11 -25 -31t-1 -40q6 -21 23 -33.5t38 -12.5h896q21 0 38 12.5t23 33.5q6 20 -1 40t-24 31v0zM649 211l-11 -13q-57 -66 -126 -66t-126 66l-10 13q-34 43 -58.5 91.5t-39.5 100.5t-19.5 106t2.5 107q7 51 25 101.5
t49 90t75 64t102 24.5t102 -24.5t75 -64t49 -90t25 -101.5q7 -53 2.5 -107.5t-19.5 -106t-39.5 -100t-57.5 -91.5zM64 0q2 1 22 13.5t56 29t86 35t111 31.5l79 17q22 -14 45 -22t49 -8t49 8t45 22l79 -17q60 -13 110 -31t85.5 -35t56.5 -29t23 -14h-896z" />
    <glyph glyph-name="uniE902" unicode="&#xe902;" 
d="M973 554l-99 20q-3 11 -7.5 21t-9.5 20l56 83q13 19 10.5 42t-18.5 39l-62 62q-9 9 -21 14t-24 5q-9 0 -18 -3t-17 -8l-84 -56q-10 5 -20 9.5t-21 7.5l-20 98q-4 23 -22 37.5t-41 14.5h-87q-22 0 -40 -14.5t-22 -37.5l-20 -98q-11 -3 -21 -7.5t-20 -9.5l-83 56
q-9 5 -18 8t-18 3q-12 0 -24 -5t-21 -14l-62 -62q-16 -16 -18 -39t10 -42l56 -83q-5 -10 -9.5 -20.5t-7.5 -20.5l-99 -20q-22 -4 -36.5 -22t-14.5 -41v-87q0 -22 14.5 -40t36.5 -22l99 -20q3 -11 7.5 -21t9.5 -20l-56 -84q-12 -19 -10 -41.5t18 -38.5l62 -62q9 -9 21 -14
t24 -5q9 0 18 3t18 8l83 56q10 -5 20 -9.5t21 -7.5l20 -99q4 -22 22 -36.5t40 -14.5h88q22 0 40 14.5t22 36.5l20 99q11 3 21 7.5t20 9.5l84 -56q8 -5 17 -8t18 -3q12 0 24 5t21 14l62 62q16 16 18.5 38.5t-10.5 41.5l-56 84q5 10 9.5 20t7.5 21l99 20q22 4 36.5 22t14.5 40
v87q0 23 -14.5 41t-36.5 22v0zM862 385q-17 -4 -29.5 -15t-18.5 -27q-3 -9 -6.5 -17.5t-7.5 -16.5q-8 -16 -6.5 -33t10.5 -31l56 -83l-62 -62l-83 56q-8 5 -17 8t-19 3q-7 0 -14 -2t-14 -5q-8 -4 -16.5 -7.5t-17.5 -6.5q-16 -6 -27 -18.5t-15 -29.5l-19 -98h-88l-19 98
q-3 17 -14.5 29.5t-27.5 18.5q-9 3 -17.5 6.5t-16.5 7.5q-7 3 -14 5t-14 2q-10 0 -19 -3t-17 -8l-83 -56l-62 62l56 83q9 14 10.5 31t-6.5 33q-4 8 -7.5 16.5t-6.5 17.5q-6 16 -18.5 27t-29.5 15l-98 19v87l98 20q17 3 29.5 14.5t18.5 27.5q3 9 6.5 17.5t7.5 16.5
q8 16 6.5 32.5t-10.5 31.5l-56 83l62 62l83 -56q8 -5 17 -8t19 -3q7 0 14 1.5t14 5.5q8 4 16.5 7.5t17.5 6.5q16 6 27 18.5t15 29.5l19 98h87l20 -98q3 -17 14.5 -29.5t27.5 -18.5q9 -3 17.5 -6.5t16.5 -7.5q7 -4 14 -5.5t14 -1.5q10 0 19 3t17 8l83 56l62 -62l-56 -83
q-9 -15 -10.5 -31.5t6.5 -32.5q4 -8 7.5 -16.5t6.5 -17.5q6 -16 18.5 -27.5t29.5 -14.5l98 -20v-87l-98 -19v0zM512 672q-46 0 -87 -17.5t-71.5 -48t-48 -71.5t-17.5 -87t17.5 -87t48 -71.5t71.5 -48t87 -17.5t87 17.5t71.5 48t48 71.5t17.5 87t-17.5 87t-48 71.5t-71.5 48
t-87 17.5zM512 252q-41 0 -76.5 15.5t-62 42t-42 62t-15.5 76.5t15.5 76.5t42 62t62 42t76.5 15.5t76.5 -15.5t62 -42t42 -62t15.5 -76.5t-15.5 -76.5t-42 -62t-62 -42t-76.5 -15.5zM512 576q-53 0 -90.5 -37.5t-37.5 -90.5t37.5 -90.5t90.5 -37.5t90.5 37.5t37.5 90.5
t-37.5 90.5t-90.5 37.5zM512 352q-40 0 -68 28t-28 68t28 68t68 28t68 -28t28 -68t-28 -68t-68 -28z" />
    <glyph glyph-name="uniE903" unicode="&#xe903;" 
d="M1024 352l-192 192v288h-128v-160l-192 192l-512 -512v-32h128v-320h320v192h128v-192h320v320h128v32z" />
    <glyph glyph-name="uniE904" unicode="&#xe904;" 
d="M512 640q-53 0 -99.5 -20t-81.5 -55t-55 -81.5t-20 -99.5t20 -99.5t55 -81.5t81.5 -55t99.5 -20t99.5 20t81.5 55t55 81.5t20 99.5t-20 99.5t-55 81.5t-81.5 55t-99.5 20zM658 259q-52 -60 -131.5 -66.5t-139.5 45.5t-66 131.5t45 139.5q52 60 131.5 66t139.5 -45
q60 -52 66.5 -131.5t-45.5 -139.5zM512 512q7 0 11.5 -4.5t4.5 -11.5t-4.5 -11.5t-11.5 -4.5q-40 0 -68 -28t-28 -68v0q0 -7 -4.5 -11.5t-11.5 -4.5t-11.5 4.5t-4.5 11.5v0q0 53 37.5 90.5t90.5 37.5zM944 671l-139 23l-44 110q-11 27 -35 43.5t-54 16.5h-320
q-30 0 -54 -16.5t-35 -43.5l-44 -110l-139 -23q-35 -6 -57.5 -33t-22.5 -62v-480q0 -40 28 -68t68 -28h832q40 0 68 28t28 68v480q0 35 -22.5 62t-57.5 33zM960 96q0 -13 -9.5 -22.5t-22.5 -9.5h-832q-13 0 -22.5 9.5t-9.5 22.5v480q0 12 7.5 21t19.5 11l174 29l57 143
q4 9 12 14.5t18 5.5h320q10 0 18 -5.5t12 -14.5l57 -143l174 -29q12 -2 19.5 -11t7.5 -21v-480z" />
    <glyph glyph-name="uniE905" unicode="&#xe905;" 
d="M941 877q-40 40 -89.5 61.5t-101.5 21.5q-43 0 -81.5 -15.5t-67.5 -44.5l-156 -157l-0.5 -0.5l-0.5 -0.5q-1 0 -1 -0.5v-0.5v0l-330 -333q-12 -12 -20 -25.5t-13 -29.5l-75 -272q0 -1 -2.5 -13t-2.5 -20q0 -46 33 -79t79 -33q9 0 23 3l14 3l271 71q16 5 30 13t25 20
l488 492q34 33 49 76t11.5 89t-24 91t-58.5 83v0zM512 199q-2 21 -7.5 42t-15.5 42l303 302q14 -44 6.5 -87t-38.5 -73v0v-1v0l-247 -249v11.5t-1 12.5v0zM473 312q-9 15 -19 29t-23 26q-15 15 -31.5 26.5t-33.5 21.5l305 305q18 -8 35 -19.5t32 -26.5q13 -13 23 -27.5
t18 -29.5l-306 -305v0zM336 430q-23 9 -46 14t-46 5l246 249q29 27 67.5 35.5t79.5 -1.5zM133 4q-2 -1 -9 -2.5t-12 -1.5q-20 0 -34 14t-14 34q0 4 1.5 9.5t1.5 8.5l34 122q27 1 55.5 -10t51.5 -34q23 -24 34.5 -52.5t9.5 -56.5l-119 -31v0zM284 44q-1 32 -14 64t-40 58
q-25 25 -56 39.5t-64 15.5l32 115q2 6 5 11.5t7 10.5q48 35 114 25t118 -61q54 -55 62 -125t-34 -117q-3 -2 -6 -3l-6 -2l-118 -31v0zM918 583l-54 -54q0 5 0.5 10.5t-0.5 11.5q-4 46 -25 89.5t-56 78.5q-39 39 -88.5 60.5t-101.5 21.5l53 54q20 20 47 30.5t57 10.5
q39 0 77 -16.5t68 -47.5q29 -28 45.5 -62.5t19.5 -70.5q2 -34 -9 -63.5t-33 -52.5v0z" />
    <glyph glyph-name="uniE906" unicode="&#xe906;" 
d="M384 320l128 64l448 448l-64 64l-448 -448zM289 93q-23 50 -52.5 79.5t-79.5 52.5l99 273l128 78l384 384h-192l-384 -384l-192 -640l640 192l384 384v192l-384 -384l-78 -128z" />
    <glyph glyph-name="uniE907" unicode="&#xe907;" 
d="M864 800h-704q-13 0 -22.5 -9.5t-9.5 -22.5v-448q0 -13 9.5 -22.5t22.5 -9.5h704q13 0 22.5 9.5t9.5 22.5v448q0 13 -9.5 22.5t-22.5 9.5zM864 320h-704v448h704v-448zM928 928h-832q-40 0 -68 -28t-28 -68v-640q0 -40 28 -68t68 -28h320v-39l-200 -26q-10 -2 -17 -11
t-7 -20q0 -13 9.5 -22.5t22.5 -9.5h576q13 0 22.5 9.5t9.5 22.5q0 11 -7 20t-17 11l-200 26v39h320q40 0 68 28t28 68v640q0 40 -28 68t-68 28zM960 192q0 -13 -9.5 -22.5t-22.5 -9.5h-832q-13 0 -22.5 9.5t-9.5 22.5v640q0 13 9.5 22.5t22.5 9.5h832q13 0 22.5 -9.5
t9.5 -22.5v-640z" />
    <glyph glyph-name="uniE908" unicode="&#xe908;" 
d="M512 392q79 0 135.5 56.5t56.5 135.5q0 80 -56.5 136t-135.5 56t-135.5 -56t-56.5 -136q0 -79 56.5 -135.5t135.5 -56.5zM512 744q66 0 113 -47t47 -113t-47 -113t-113 -47t-113 47t-47 113t47 113t113 47zM512 960q-79 0 -149 -30t-122.5 -82t-82.5 -122t-30 -150
q0 -84 32 -168t81.5 -163t108 -151t110.5 -132q0 -1 15 -13.5t36 -12.5h1h1q21 0 36 12.5t15 13.5q53 60 111 132t107.5 151t81.5 163t32 168q0 80 -30 150t-82.5 122t-122.5 82t-149 30zM516 4l-2 -2t-3 -1l-1.5 1.5l-2.5 2.5q-44 50 -98.5 116.5t-102.5 141.5t-81 155
t-33 158q0 66 25 124.5t68.5 102t102 68.5t124.5 25t124.5 -25t102 -68.5t68.5 -102t25 -124.5q0 -78 -33 -158t-81 -155t-103 -141.5t-99 -117.5v0z" />
    <glyph glyph-name="uniE909" unicode="&#xe909;" 
d="M768 960h-512q-40 0 -68 -28t-28 -68v-832q0 -40 28 -68t68 -28h512q40 0 68 28t28 68v832q0 40 -28 68t-68 28zM800 32q0 -13 -9.5 -22.5t-22.5 -9.5h-512q-13 0 -22.5 9.5t-9.5 22.5v64h576v-64zM800 128h-576v640h576v-640zM800 800h-576v64q0 13 9.5 22.5t22.5 9.5
h512q13 0 22.5 -9.5t9.5 -22.5v-64zM576 848q0 -7 -4.5 -11.5t-11.5 -4.5h-96q-7 0 -11.5 4.5t-4.5 11.5v0q0 7 4.5 11.5t11.5 4.5h96q7 0 11.5 -4.5t4.5 -11.5v0zM544 48q0 -6 -4.5 -11t-11.5 -5h-32q-7 0 -11.5 5t-4.5 11v0q0 7 4.5 11.5t11.5 4.5h32q7 0 11.5 -4.5
t4.5 -11.5v0z" />
    <glyph glyph-name="uniE90A" unicode="&#xe90a;" 
d="M928 960h-704q-40 0 -68 -28t-28 -68v-64h-32q-40 0 -68 -28t-28 -68v-640q0 -53 37.5 -90.5t90.5 -37.5h768q53 0 90.5 37.5t37.5 90.5v800q0 40 -28 68t-68 28zM960 64q0 -26 -19 -45t-45 -19h-768q-26 0 -45 19t-19 45v640q0 13 9.5 22.5t22.5 9.5h32v-640
q0 -13 9.5 -22.5t22.5 -9.5t22.5 9.5t9.5 22.5v768q0 13 9.5 22.5t22.5 9.5h704q13 0 22.5 -9.5t9.5 -22.5v-800zM624 544q-7 0 -11.5 4.5t-4.5 11.5q0 6 4.5 11t11.5 5h256q7 0 11.5 -5t4.5 -11q0 -7 -4.5 -11.5t-11.5 -4.5h-256zM624 640q-7 0 -11.5 4.5t-4.5 11.5
q0 6 4.5 11t11.5 5h256q7 0 11.5 -5t4.5 -11q0 -7 -4.5 -11.5t-11.5 -4.5h-256zM624 736q-7 0 -11.5 4.5t-4.5 11.5q0 6 4.5 11t11.5 5h256q7 0 11.5 -5t4.5 -11q0 -7 -4.5 -11.5t-11.5 -4.5h-256zM528 96q7 0 11.5 -5t4.5 -11q0 -7 -4.5 -11.5t-11.5 -4.5h-256
q-7 0 -11.5 4.5t-4.5 11.5q0 6 4.5 11t11.5 5h256zM528 192q7 0 11.5 -5t4.5 -11q0 -7 -4.5 -11.5t-11.5 -4.5h-256q-7 0 -11.5 4.5t-4.5 11.5q0 6 4.5 11t11.5 5h256zM528 288q7 0 11.5 -5t4.5 -11q0 -7 -4.5 -11.5t-11.5 -4.5h-256q-7 0 -11.5 4.5t-4.5 11.5q0 6 4.5 11
t11.5 5h256zM880 96q7 0 11.5 -5t4.5 -11q0 -7 -4.5 -11.5t-11.5 -4.5h-256q-7 0 -11.5 4.5t-4.5 11.5q0 6 4.5 11t11.5 5h256zM880 192q7 0 11.5 -5t4.5 -11q0 -7 -4.5 -11.5t-11.5 -4.5h-256q-7 0 -11.5 4.5t-4.5 11.5q0 6 4.5 11t11.5 5h256zM880 288q7 0 11.5 -5
t4.5 -11q0 -7 -4.5 -11.5t-11.5 -4.5h-256q-7 0 -11.5 4.5t-4.5 11.5q0 6 4.5 11t11.5 5h256zM880 480q7 0 11.5 -5t4.5 -11q0 -7 -4.5 -11.5t-11.5 -4.5h-608q-7 0 -11.5 4.5t-4.5 11.5q0 6 4.5 11t11.5 5h608v0zM880 384q7 0 11.5 -5t4.5 -11q0 -7 -4.5 -11.5t-11.5 -4.5
h-608q-7 0 -11.5 4.5t-4.5 11.5q0 6 4.5 11t11.5 5h608zM288 544h224q13 0 22.5 9.5t9.5 22.5v224q0 13 -9.5 22.5t-22.5 9.5h-224q-13 0 -22.5 -9.5t-9.5 -22.5v-224q0 -13 9.5 -22.5t22.5 -9.5zM320 768h160v-160h-160v160z" />
    <glyph glyph-name="uniE90B" unicode="&#xe90b;" 
d="M864 960h-704q-53 0 -90.5 -37.5t-37.5 -90.5v-768q0 -53 37.5 -90.5t90.5 -37.5h704q53 0 90.5 37.5t37.5 90.5v768q0 53 -37.5 90.5t-90.5 37.5zM928 64q0 -26 -19 -45t-45 -19h-704q-26 0 -45 19t-19 45v768q0 26 19 45t45 19h704q26 0 45 -19t19 -45v-768zM832 832
h-640q-13 0 -22.5 -9.5t-9.5 -22.5v-576q0 -13 9.5 -22.5t22.5 -9.5h640q13 0 22.5 9.5t9.5 22.5v576q0 13 -9.5 22.5t-22.5 9.5zM832 800v-444l-104 113q-5 5 -11 8t-13 3t-13 -3t-11 -8l-83 -94l-253 286q-5 5 -11 8t-13 3t-13 -3t-11 -8l-104 -120v259h640v0zM192 493
l128 147l277 -314l88 -102h-493v269v0zM728 224l-110 127l86 97l128 -140v-84h-104v0zM640 544q40 0 68 28t28 68t-28 68t-68 28t-68 -28t-28 -68t28 -68t68 -28zM640 704q26 0 45 -19t19 -45t-19 -45t-45 -19t-45 19t-19 45t19 45t45 19z" />
    <glyph glyph-name="uniE90C" unicode="&#xe90c;" 
d="M1009 955q-4 2 -8 3.5t-9 1.5t-9.5 -1.5t-8.5 -3.5l-960 -640q-7 -5 -11 -13t-3 -17t6.5 -16t13.5 -11l250 -100l118 -206q4 -7 11.5 -11.5t16.5 -4.5v0v0q8 0 15.5 4t11.5 12l67 110l310 -124q3 -1 6 -1.5t6 -0.5q4 0 8 1t8 3q6 4 10 10t6 13l160 960q1 9 -3 18t-12 14
v0zM100 295l742 495l-539 -578q-2 2 -4 3.5t-5 2.5l-194 77v0zM326 190v0v0l606 649l-517 -805zM807 13l-273 109q-5 2 -10 2.5t-10 1.5l421 652l-128 -765v0z" />
    <glyph glyph-name="uniE90D" unicode="&#xe90d;" 
d="M800 960q-49 0 -88 -31.5t-66 -83.5l-1 1q-40 -79 -98 -126.5t-124 -47.5h-295q-54 0 -91 -46.5t-37 -113.5t37 -113.5t91 -46.5q26 0 45 -19t19 -45v-288q0 -27 18.5 -45.5t45.5 -18.5h128q26 0 45 18.5t19 45.5v32q0 24 -16 37.5t-16 26.5v224v1v1q1 3 1.5 6.5t2.5 6.5
l0.5 1t1.5 1q2 3 4.5 5.5t5.5 4.5v0v0v0v0q2 1 4.5 1.5t4.5 1.5q61 -6 113.5 -52t90.5 -120h1q28 -52 66.5 -83t87.5 -31q55 0 97 38.5t70 102t42.5 144t14.5 163.5t-14.5 163.5t-42.5 144t-70 102t-97 38.5v0zM640 512q0 25 1.5 49t3.5 47h91q26 0 45 -28t19 -68t-19 -68
t-45 -28h-91q-2 23 -3.5 47t-1.5 49zM64 512q0 40 19 68t45 28h224q-14 -17 -23 -42t-9 -54t9 -54t23 -42h-224q-26 0 -45 28t-19 68zM384 0h-128v288q0 17 -4.5 33.5t-12.5 30.5h22v0h96q-2 -8 -3.5 -16t-1.5 -16v-224q0 -23 10 -38.5t17 -25.5q1 -1 2.5 -2t2.5 -3v-27v0z
M423 416h-7v0q-26 0 -45 28t-19 68t19 68t45 28h7q45 0 87.5 17t79.5 48q-7 -39 -10.5 -79.5t-3.5 -81.5t3.5 -81.5t10.5 -79.5q-37 31 -79.5 48t-87.5 17v0zM800 128q-48 0 -87 62.5t-58 161.5h81q54 0 91 46.5t37 113.5t-37 113.5t-91 46.5h-81q19 99 58 161.5t87 62.5
q33 0 62 -30t51 -82.5t34.5 -122t12.5 -149.5t-12.5 -149.5t-34.5 -122t-51 -82.5t-62 -30z" />
    <glyph glyph-name="uniE90E" unicode="&#xe90e;" 
d="M1005 602l-96 128l-6.5 6.5l-6.5 6.5v153q0 26 -19 45t-45 19h-640q-27 0 -45.5 -19t-18.5 -45v-153l-6.5 -6.5l-6.5 -6.5l-96 -128q-9 -13 -14 -27.5t-5 -30.5v-32q0 -40 28 -68t68 -28v0v-416q0 -26 19 -45t45 -19h704q26 0 45 19t19 45v416q40 0 68 28t28 68v32
q0 16 -5 30.5t-14 27.5zM832 896v-128h-640v128h640zM326 480h-134l128 224h70zM423 704h73v-224h-137zM528 704h73l64 -224h-137v224zM634 704h70l128 -224h-134zM64 512v32q0 5 1.5 10t4.5 9l96 128q5 6 11.5 9.5t14.5 3.5h91l-128 -224h-59q-13 0 -22.5 9.5t-9.5 22.5z
M640 0h-240v320h240v-320zM864 0h-192v320q0 13 -9.5 22.5t-22.5 9.5h-240q-13 0 -22.5 -9.5t-9.5 -22.5v-320h-208v416h704v-416zM960 512q0 -13 -9.5 -22.5t-22.5 -9.5h-59l-128 224h91q8 0 14.5 -3.5t11.5 -9.5l96 -128q3 -4 4.5 -9t1.5 -10v-32z" />
    <glyph glyph-name="uniE90F" unicode="&#xe90f;" 
d="M795 594q-5 6 -12 10t-15 4h-32q-13 0 -22.5 -9.5t-9.5 -22.5v-192q0 -13 9.5 -22.5t22.5 -9.5h128q13 0 22.5 9.5t9.5 22.5v48q0 5 -1.5 9.5t-3.5 8.5zM864 384h-128v192h32l96 -144v-48zM1008 469l-128 192q-14 20 -35 31.5t-45 11.5h-128v64q0 40 -28 68t-68 28h-480
q-40 0 -68 -28t-28 -68v-352q0 -40 28 -68t68 -28v0v-96q0 -40 28 -68t68 -28h37q10 -41 44 -68.5t79 -27.5t79 27.5t44 68.5h169q11 -41 45 -68.5t79 -27.5t79 27.5t44 68.5h37q40 0 68 28t28 68v192q0 14 -4 27.5t-12 25.5zM96 384q-13 0 -22.5 9.5t-9.5 22.5v352
q0 13 9.5 22.5t22.5 9.5h480q13 0 22.5 -9.5t9.5 -22.5v-352q0 -13 -9.5 -22.5t-22.5 -9.5h-480zM352 96q-26 0 -45 19t-19 45t19 45t45 19q27 0 45.5 -19t18.5 -45t-18.5 -45t-45.5 -19zM768 96q-27 0 -45.5 19t-18.5 45t18.5 45t45.5 19q26 0 45 -19t19 -45t-19 -45
t-45 -19zM960 224q0 -13 -9.5 -22.5t-22.5 -9.5h-37q-10 41 -44 68.5t-79 27.5t-79 -27.5t-44 -68.5h-170q-10 41 -44 68.5t-79 27.5t-79 -27.5t-44 -68.5h-37q-13 0 -22.5 9.5t-9.5 22.5v96h416q40 0 68 28t28 68v224h128q8 0 15 -4t12 -10l128 -192q2 -4 3.5 -8.5
t1.5 -9.5v-192z" />
    <glyph glyph-name="uniE910" unicode="&#xe910;" 
d="M896 704v128h-896v-704q0 -27 18.5 -45.5t45.5 -18.5h864q40 0 68 28t28 68v544h-128zM832 128h-768v640h768v-640zM128 640h640v-64h-640v64zM512 512h256v-64h-256v64zM512 384h256v-64h-256v64zM512 256h192v-64h-192v64zM128 512h320v-320h-320v320z" />
    <glyph glyph-name="uniE911" unicode="&#xe911;" 
d="M960 832v0v0v-768v0v0h-896v0v0v768v0v0h896v0zM960 896h-896q-26 0 -45 -19t-19 -45v-768q0 -26 19 -45t45 -19h896q26 0 45 19t19 45v768q0 26 -19 45t-45 19v0zM832 672q0 -40 -28 -68t-68 -28t-68 28t-28 68t28 68t68 28t68 -28t28 -68zM896 128h-768v128l224 384
l256 -320h64l224 192v-384z" />
    <glyph glyph-name="uniE912" unicode="&#xe912;" horiz-adv-x="1152" 
d="M1088 832h-64v64q0 26 -19 45t-45 19h-896q-26 0 -45 -19t-19 -45v-768q0 -26 19 -45t45 -19h64v-64q0 -26 19 -45t45 -19h896q26 0 45 19t19 45v768q0 26 -19 45t-45 19zM128 768v-640h-64v0v0v768v0v0h896v0v0v-64h-768q-26 0 -45 -19t-19 -45v0zM1088 0v0v0h-896v0v0
v768v0v0h896v0v0v-768zM960 608q0 -40 -28 -68t-68 -28t-68 28t-28 68t28 68t68 28t68 -28t28 -68zM1024 64h-768v128l224 384l256 -320h64l224 192v-384z" />
    <glyph glyph-name="uniE913" unicode="&#xe913;" 
d="M304 352q0 -43 16.5 -81t44.5 -66t66 -44.5t81 -16.5t81 16.5t66 44.5t44.5 66t16.5 81t-16.5 81t-44.5 66t-66 44.5t-81 16.5t-81 -16.5t-66 -44.5t-44.5 -66t-16.5 -81zM960 704h-224q-12 48 -30 88t-66 40h-256q-48 0 -66 -40t-30 -88h-224q-26 0 -45 -19t-19 -45
v-576q0 -26 19 -45t45 -19h896q26 0 45 19t19 45v576q0 26 -19 45t-45 19zM512 68q-59 0 -110.5 22.5t-90 61t-61 90t-22.5 110.5t22.5 110.5t61 90t90 61t110.5 22.5t110.5 -22.5t90 -61t61 -90t22.5 -110.5t-22.5 -110.5t-61 -90t-90 -61t-110.5 -22.5zM960 512h-128v64
h128v-64z" />
    <glyph glyph-name="uniE925" unicode="&#xe925;" 
d="M918 603q-17 23 -39.5 48.5t-47.5 51.5q-26 25 -51.5 47.5t-48.5 39.5q-39 28 -59.5 35t-31.5 7h-368q-33 0 -56.5 -23.5t-23.5 -56.5v-736q0 -33 23.5 -56.5t56.5 -23.5h608q33 0 56.5 23.5t23.5 56.5v496q0 11 -7 31.5t-35 59.5v0zM785 657q23 -23 41.5 -43.5
t31.5 -37.5h-154v154q17 -13 37.5 -31.5t43.5 -41.5v0zM896 16q0 -7 -4.5 -11.5t-11.5 -4.5h-608q-7 0 -11.5 4.5t-4.5 11.5v736q0 7 4.5 11.5t11.5 4.5h57.5h126.5h126.5h57.5v-224q0 -13 9.5 -22.5t22.5 -9.5h224v-496zM603 918q-39 28 -59.5 35t-31.5 7h-368
q-33 0 -56.5 -23.5t-23.5 -56.5v-736q0 -29 18.5 -51t45.5 -27v814q0 7 4.5 11.5t11.5 4.5h487q-7 6 -14 11.5t-14 10.5z" />
    <glyph glyph-name="uniE926" unicode="&#xe926;" 
d="M918 731q-17 23 -39.5 48.5t-47.5 51.5q-26 25 -51.5 47.5t-48.5 39.5q-39 28 -59.5 35t-31.5 7h-496q-33 0 -56.5 -23.5t-23.5 -56.5v-864q0 -33 23.5 -56.5t56.5 -23.5h736q33 0 56.5 23.5t23.5 56.5v624q0 11 -7 31.5t-35 59.5v0zM785 785q23 -23 41.5 -43.5
t31.5 -37.5h-154v154q17 -13 37.5 -31.5t43.5 -41.5zM896 16q0 -7 -4.5 -11.5t-11.5 -4.5h-736q-7 0 -11.5 4.5t-4.5 11.5v864q0 7 4.5 11.5t11.5 4.5h77.5h170.5h170.5h77.5v-224q0 -13 9.5 -22.5t22.5 -9.5h224v-624zM736 128h-448q-13 0 -22.5 9.5t-9.5 22.5t9.5 22.5
t22.5 9.5h448q13 0 22.5 -9.5t9.5 -22.5t-9.5 -22.5t-22.5 -9.5zM736 256h-448q-13 0 -22.5 9.5t-9.5 22.5t9.5 22.5t22.5 9.5h448q13 0 22.5 -9.5t9.5 -22.5t-9.5 -22.5t-22.5 -9.5zM736 384h-448q-13 0 -22.5 9.5t-9.5 22.5t9.5 22.5t22.5 9.5h448q13 0 22.5 -9.5
t9.5 -22.5t-9.5 -22.5t-22.5 -9.5z" />
    <glyph glyph-name="uniE93E" unicode="&#xe93e;" 
d="M480 896q-99 0 -186.5 -37.5t-153 -103t-103 -153t-37.5 -186.5t37.5 -186.5t103 -153t153 -103t186.5 -37.5t186.5 37.5t153 103t103 153t37.5 186.5t-37.5 186.5t-103 153t-153 103t-186.5 37.5zM480 32q-80 0 -149.5 30t-122 82.5t-82.5 122t-30 149.5t30 149.5
t82.5 122t122 82.5t149.5 30t149.5 -30t122 -82.5t82.5 -122t30 -149.5t-30 -149.5t-82.5 -122t-122 -82.5t-149.5 -30zM608 384q13 0 22.5 9.5t9.5 22.5t-9.5 22.5t-22.5 9.5h-68l95 142q7 11 4.5 24t-13.5 21q-11 7 -24 4.5t-21 -13.5l-101 -152l-101 152q-8 11 -21 13.5
t-24 -4.5q-11 -8 -13.5 -21t4.5 -24l95 -142h-68q-13 0 -22.5 -9.5t-9.5 -22.5t9.5 -22.5t22.5 -9.5h96v-64h-96q-13 0 -22.5 -9.5t-9.5 -22.5t9.5 -22.5t22.5 -9.5h96v-96q0 -13 9.5 -22.5t22.5 -9.5t22.5 9.5t9.5 22.5v96h96q13 0 22.5 9.5t9.5 22.5t-9.5 22.5t-22.5 9.5
h-96v64h96v0z" />
    <glyph glyph-name="uniE947" unicode="&#xe947;" 
d="M512 960q-66 0 -124.5 -25t-102 -68.5t-68.5 -102t-25 -124.5q0 -120 50 -245t110 -227t110 -167l50 -65l50 65t110 167t110 227t50 245q0 66 -25 124.5t-68.5 102t-102 68.5t-124.5 25zM512 448q-80 0 -136 56t-56 136t56 136t136 56t136 -56t56 -136t-56 -136t-136 -56
z" />
    <glyph glyph-name="uniE948" unicode="&#xe948;" 
d="M512 960q-66 0 -124.5 -25t-102 -68.5t-68.5 -102t-25 -124.5q0 -120 50 -245t110 -227t110 -167l50 -65l50 65t110 167t110 227t50 245q0 66 -25 124.5t-68.5 102t-102 68.5t-124.5 25zM512 444q-41 0 -76.5 15.5t-62 42t-42 62t-15.5 76.5t15.5 76.5t42 62t62 42
t76.5 15.5t76.5 -15.5t62 -42t42 -62t15.5 -76.5t-15.5 -76.5t-42 -62t-62 -42t-76.5 -15.5zM388 640q0 51 36.5 87.5t87.5 36.5t87.5 -36.5t36.5 -87.5t-36.5 -87.5t-87.5 -36.5t-87.5 36.5t-36.5 87.5z" />
    <glyph glyph-name="uniE949" unicode="&#xe949;" 
d="M544 -64h-3.5t-3.5 1q-11 2 -18 11t-7 20v480h-480q-11 0 -20 7t-11 18q-3 11 2 21t15 15l960 448q10 4 19.5 2.5t17.5 -8.5q7 -8 8.5 -17.5t-2.5 -19.5l-448 -960q-4 -8 -12 -13t-17 -5v0zM176 512h368q13 0 22.5 -9.5t9.5 -22.5v-368l350 750l-750 -350v0z" />
    <glyph glyph-name="uniE94A" unicode="&#xe94a;" 
d="M512 960q-106 0 -199.5 -40t-163 -109.5t-109.5 -163t-40 -199.5t40 -199.5t109.5 -163t163 -109.5t199.5 -40t199.5 40t163 109.5t109.5 163t40 199.5t-40 199.5t-109.5 163t-163 109.5t-199.5 40zM96 448q0 86 32.5 162t89 132.5t132.5 89t162 32.5q82 0 155 -30
t129 -82l-412 -176l-176 -412q-52 56 -82 129t-30 155v0zM585 375l-256 -110l110 256zM512 32q-82 0 -155 30t-129 82l412 176l176 412q52 -56 82 -129t30 -155q0 -86 -32.5 -162t-89 -132.5t-132.5 -89t-162 -32.5v0z" />
    <glyph glyph-name="uniE94B" unicode="&#xe94b;" 
d="M0 768l320 128v-768l-320 -128v768zM384 928l320 -192v-736l-320 160v768zM768 736l256 192v-768l-256 -192v768z" />
    <glyph glyph-name="uniE94C" unicode="&#xe94c;" 
d="M672 768l-320 128l-352 -128v-768l352 128l320 -128l352 128v768zM384 814l256 -102v-630l-256 102v630zM64 723l256 93v-632l-256 -93v632zM960 173l-256 -93v632l256 93v-632z" />
    <glyph glyph-name="uniE94E" unicode="&#xe94e;" 
d="M659 211l-211 210v283h128v-229l173 -174zM512 960q-106 0 -199.5 -40t-163 -109.5t-109.5 -163t-40 -199.5t40 -199.5t109.5 -163t163 -109.5t199.5 -40t199.5 40t163 109.5t109.5 163t40 199.5t-40 199.5t-109.5 163t-163 109.5t-199.5 40zM512 64q-80 0 -149.5 30
t-122 82.5t-82.5 122t-30 149.5t30 149.5t82.5 122t122 82.5t149.5 30t149.5 -30t122 -82.5t82.5 -122t30 -149.5t-30 -149.5t-82.5 -122t-122 -82.5t-149.5 -30z" />
    <glyph glyph-name="uniE94F" unicode="&#xe94f;" 
d="M512 960q-106 0 -199.5 -40t-163 -109.5t-109.5 -163t-40 -199.5t40 -199.5t109.5 -163t163 -109.5t199.5 -40t199.5 40t163 109.5t109.5 163t40 199.5t-40 199.5t-109.5 163t-163 109.5t-199.5 40zM659 211l-211 210v283h128v-229l173 -174l-90 -90v0z" />
    <glyph glyph-name="uniE953" unicode="&#xe953;" 
d="M320 576h128v-128h-128v128zM512 576h128v-128h-128v128zM704 576h128v-128h-128v128zM128 192h128v-128h-128v128zM320 192h128v-128h-128v128zM512 192h128v-128h-128v128zM320 384h128v-128h-128v128zM512 384h128v-128h-128v128zM704 384h128v-128h-128v128zM128 384
h128v-128h-128v128zM832 960v-64h-128v64h-448v-64h-128v64h-128v-1024h960v1024h-128zM896 0h-832v704h832v-704z" />
    <glyph glyph-name="uniE957" unicode="&#xe957;" 
d="M896 256v512q0 26 -19 45t-45 19h-640q-26 0 -45 -19t-19 -45v-512h-128v-192h1024v192h-128zM640 128h-256v64h256v-64zM832 256h-640v512v0v0h640v0v0v-512z" />
    <glyph glyph-name="uniE958" unicode="&#xe958;" 
d="M736 960h-448q-40 0 -68 -28t-28 -68v-832q0 -40 28 -68t68 -28h448q40 0 68 28t28 68v832q0 40 -28 68t-68 28zM384 912h256v-32h-256v32zM512 0q-27 0 -45.5 18.5t-18.5 45.5t18.5 45.5t45.5 18.5t45.5 -18.5t18.5 -45.5t-18.5 -45.5t-45.5 -18.5zM768 192h-512v640
h512v-640z" />
    <glyph glyph-name="uniE965" unicode="&#xe965;" 
d="M512 896q-53 0 -103 -10.5t-96 -30t-87 -47t-76 -62.5l-150 150v-384h384l-144 144q53 52 122.5 82t149.5 30t149.5 -30t122 -82.5t82.5 -122t30 -149.5q0 -43 -9 -83.5t-26 -77t-41 -69t-54 -58.5l85 -96q40 35 72 78t54.5 92t34.5 103t12 111q0 106 -40 199.5
t-109.5 163t-163 109.5t-199.5 40v0z" />
    <glyph glyph-name="uniE966" unicode="&#xe966;" 
d="M0 384q0 -57 12 -111t34.5 -103t54.5 -92t72 -78l85 96q-30 26 -54 58.5t-41 69t-26 77t-9 83.5q0 80 30 149.5t82.5 122t122 82.5t149.5 30t149.5 -30t122.5 -82l-144 -144h384v384l-150 -150q-35 35 -76 62.5t-87 47t-96 30t-103 10.5q-106 0 -199.5 -40t-163 -109.5
t-109.5 -163t-40 -199.5z" />
    <glyph glyph-name="uniE971" unicode="&#xe971;" 
d="M576 253v53q53 30 90.5 97t37.5 141q0 60 -3 112.5t-21 91.5t-57 61.5t-111 22.5t-111 -22.5t-57 -61.5t-21 -91.5t-3 -112.5q0 -74 37.5 -141t90.5 -97v-53q-81 -6 -151.5 -28.5t-122 -56t-81 -77t-29.5 -91.5h896q0 48 -29.5 91.5t-81 77t-122 56t-151.5 28.5z" />
    <glyph glyph-name="uniE97F" unicode="&#xe97f;" 
d="M384 832q0 53 37.5 90.5t90.5 37.5t90.5 -37.5t37.5 -90.5t-37.5 -90.5t-90.5 -37.5t-90.5 37.5t-37.5 90.5zM791 448v0v0q0 43 31 74t74 31t74 -31t31 -74v0v0q0 -43 -31 -74t-74 -31t-74 31t-31 74zM688 176q0 40 28 68t68 28q39 0 67 -28t28 -68q0 -39 -28 -67
t-67 -28q-40 0 -68 28t-28 67zM426 64q0 36 25 61t61 25t61 -25t25 -61t-25 -61t-61 -25t-61 25t-25 61v0zM162 176q0 33 23 55.5t55 22.5q33 0 55.5 -22.5t22.5 -55.5q0 -32 -22.5 -55t-55.5 -23q-32 0 -55 23t-23 55zM57 448q0 29 21 50t50 21t50 -21t21 -50t-21 -50
t-50 -21t-50 21t-21 50v0zM176 720v0v0q0 26 19 45t45 19q27 0 45.5 -19t18.5 -45v0v0q0 -27 -18.5 -45.5t-45.5 -18.5q-26 0 -45 18.5t-19 45.5v0zM899 720q0 -48 -33.5 -82t-81.5 -34t-82 34t-34 82t34 81.5t82 33.5t81.5 -33.5t33.5 -81.5z" />
    <glyph glyph-name="uniE994" unicode="&#xe994;" 
d="M934 350q-20 35 -24.5 73t5 74.5t33 67.5t58.5 51l-101 175q-21 -13 -46 -20t-52 -7q-40 0 -75.5 15.5t-62 42t-41.5 62t-15 76.5h-201q0 -25 -6.5 -50t-19.5 -48q-21 -35 -52 -58t-67 -32.5t-74.5 -5t-73.5 24.5l-101 -174q22 -13 40.5 -31t31.5 -41q20 -35 24.5 -73
t-5.5 -74t-33 -67.5t-58 -51.5l101 -174q21 12 46 19t51 7q40 0 75.5 -15.5t62 -42t42 -62t15.5 -75.5h201q0 25 6.5 49.5t19.5 47.5q20 35 51 58t67.5 32.5t74.5 5t74 -24.5l100 175q-21 12 -39.5 30t-31.5 41v0zM512 241q-43 0 -80.5 16t-66 44.5t-44.5 66t-16 80.5
t16 80.5t44.5 66t66 44.5t80.5 16t80.5 -16t66 -44.5t44.5 -66t16 -80.5t-16 -80.5t-44.5 -66t-66 -44.5t-80.5 -16z" />
    <glyph glyph-name="uniE99B" unicode="&#xe99b;" 
d="M128 64h896v-128h-1024v1024h128v-896zM288 128q-40 0 -68 28t-28 68t28 68t68 28h4h4l104 172q-8 11 -12 24t-4 28q0 40 28 68t68 28t68 -28t28 -68q0 -15 -4 -28t-12 -24l104 -172h4h4h3.5h2.5l171 298q-8 11 -12.5 25t-4.5 29q0 40 28 68t68 28t68 -28t28 -68t-28 -68
t-68 -28h-3.5h-2.5l-171 -298q8 -11 12.5 -25t4.5 -29q0 -40 -28 -68t-68 -28t-68 28t-28 68q0 15 4 28t12 24l-104 172h-4h-4h-4h-4l-104 -172q8 -11 12 -24t4 -28q0 -40 -28 -68t-68 -28v0z" />
    <glyph glyph-name="uniE99C" unicode="&#xe99c;" 
d="M0 128h1024v-128h-1024v128zM128 384h128v-192h-128v192zM320 640h128v-448h-128v448zM512 448h128v-256h-128v256zM704 832h128v-640h-128v640z" />
    <glyph glyph-name="uniE9AC" unicode="&#xe9ac;" 
d="M128 640v-640q0 -26 19 -45t45 -19h576q26 0 45 19t19 45v640h-704zM320 64h-64v448h64v-448zM448 64h-64v448h64v-448zM576 64h-64v448h64v-448zM704 64h-64v448h64v-448zM848 832h-208v80q0 20 -14 34t-34 14h-224q-20 0 -34 -14t-14 -34v-80h-208q-20 0 -34 -14
t-14 -34v-80h832v80q0 20 -14 34t-34 14zM576 832h-192v63h192v-63z" />
    <glyph glyph-name="uniE9BB" unicode="&#xe9bb;" 
d="M384 896h640v-128h-640v128zM384 512h640v-128h-640v128zM384 128h640v-128h-640v128zM0 832q0 53 37.5 90.5t90.5 37.5t90.5 -37.5t37.5 -90.5t-37.5 -90.5t-90.5 -37.5t-90.5 37.5t-37.5 90.5zM0 448q0 53 37.5 90.5t90.5 37.5t90.5 -37.5t37.5 -90.5t-37.5 -90.5
t-90.5 -37.5t-90.5 37.5t-37.5 90.5zM0 64q0 53 37.5 90.5t90.5 37.5t90.5 -37.5t37.5 -90.5t-37.5 -90.5t-90.5 -37.5t-90.5 37.5t-37.5 90.5z" />
    <glyph glyph-name="uniE9DC" unicode="&#xe9dc;" 
d="M576 864q0 -40 -28 -68t-68 -28t-68 28t-28 68t28 68t68 28t68 -28t28 -68zM576 704h-192q-27 0 -45.5 -18.5t-18.5 -45.5v-320h64v-384h80v384h32v-384h80v384h64v320q0 27 -18.5 45.5t-45.5 18.5z" />
    <glyph glyph-name="uniE9DD" unicode="&#xe9dd;" 
d="M576 864q0 -40 -28 -68t-68 -28t-68 28t-28 68t28 68t68 28t68 -28t28 -68zM719 448l49 35l-133 207q-5 6 -12 10t-15 4h-256q-8 0 -15 -4t-12 -10l-133 -206l49 -36l111 144l38 -90l-134 -246h123l21 -320h64v320h32v-320h64l21 320h123l-134 246l38 90l111 -144v0z" />
    <glyph glyph-name="uniEA09" unicode="&#xea09;" 
d="M448 256h128v-128h-128v128zM704 704q27 0 45.5 -18.5t18.5 -45.5v-192l-192 -128h-128v64l192 128v64h-320v128h384zM512 864q-42 0 -82 -8t-77.5 -23.5t-71.5 -38t-63 -52.5q-30 -29 -52.5 -63t-38 -71.5t-23.5 -77.5t-8 -82t8 -82t23.5 -77.5t38 -71.5t52.5 -63
q29 -30 63 -52.5t71.5 -38t77.5 -23.5t82 -8t82 8t77.5 23.5t71.5 38t63 52.5q30 29 52.5 63t38 71.5t23.5 77.5t8 82t-8 82t-23.5 77.5t-38 71.5t-52.5 63q-29 30 -63 52.5t-71.5 38t-77.5 23.5t-82 8v0zM512 960v0q106 0 199.5 -40t163 -109.5t109.5 -163t40 -199.5
t-40 -199.5t-109.5 -163t-163 -109.5t-199.5 -40t-199.5 40t-163 109.5t-109.5 163t-40 199.5t40 199.5t109.5 163t163 109.5t199.5 40z" />
    <glyph glyph-name="uniEA0A" unicode="&#xea0a;" 
d="M992 576h-352v352q0 13 -9.5 22.5t-22.5 9.5h-192q-13 0 -22.5 -9.5t-9.5 -22.5v-352h-352q-13 0 -22.5 -9.5t-9.5 -22.5v-192q0 -13 9.5 -22.5t22.5 -9.5h352v-352q0 -13 9.5 -22.5t22.5 -9.5h192q13 0 22.5 9.5t9.5 22.5v352h352q13 0 22.5 9.5t9.5 22.5v192
q0 13 -9.5 22.5t-22.5 9.5z" />
    <glyph glyph-name="uniEA0B" unicode="&#xea0b;" 
d="M0 544v-192q0 -13 9.5 -22.5t22.5 -9.5h960q13 0 22.5 9.5t9.5 22.5v192q0 13 -9.5 22.5t-22.5 9.5h-960q-13 0 -22.5 -9.5t-9.5 -22.5z" />
    <glyph glyph-name="uniEA0C" unicode="&#xea0c;" 
d="M448 656q0 20 14 34t34 14h32q20 0 34 -14t14 -34v-32q0 -20 -14 -34t-34 -14h-32q-20 0 -34 14t-14 34v32zM640 192h-256v64h64v192h-64v64h192v-256h64v-64zM512 960q-106 0 -199.5 -40t-163 -109.5t-109.5 -163t-40 -199.5t40 -199.5t109.5 -163t163 -109.5t199.5 -40
t199.5 40t163 109.5t109.5 163t40 199.5t-40 199.5t-109.5 163t-163 109.5t-199.5 40zM512 32q-86 0 -162 32.5t-132.5 89t-89 132.5t-32.5 162t32.5 162t89 132.5t132.5 89t162 32.5t162 -32.5t132.5 -89t89 -132.5t32.5 -162t-32.5 -162t-89 -132.5t-132.5 -89t-162 -32.5
z" />
    <glyph glyph-name="uniEA0D" unicode="&#xea0d;" 
d="M512 960q-106 0 -199.5 -40t-163 -109.5t-109.5 -163t-40 -199.5t40 -199.5t109.5 -163t163 -109.5t199.5 -40t199.5 40t163 109.5t109.5 163t40 199.5t-40 199.5t-109.5 163t-163 109.5t-199.5 40zM512 32q-86 0 -162 32.5t-132.5 89t-89 132.5t-32.5 162t32.5 162
t89 132.5t132.5 89t162 32.5t162 -32.5t132.5 -89t89 -132.5t32.5 -162t-32.5 -162t-89 -132.5t-132.5 -89t-162 -32.5zM672 704l-160 -160l-160 160l-96 -96l160 -160l-160 -160l96 -96l160 160l160 -160l96 96l-160 160l160 160z" />
    <glyph glyph-name="uniEA0E" unicode="&#xea0e;" 
d="M874 810q-36 36 -78 64t-88 47t-95.5 29t-100.5 10t-100.5 -10t-95.5 -29t-88 -47t-78 -64t-64 -78t-47 -88t-29 -95.5t-10 -100.5t10 -100.5t29 -95.5t47 -88t64 -78t78 -64t88 -47t95.5 -29t100.5 -10t100.5 10t95.5 29t88 47t78 64t64 78t47 88t29 95.5t10 100.5
t-10 100.5t-29 95.5t-47 88t-64 78v0zM896 448q0 -62 -19 -118.5t-52 -103.5l-535 535q47 33 103.5 52t118.5 19q79 0 149 -30t122.5 -82.5t82.5 -122.5t30 -149zM128 448q0 62 19 118.5t52 103.5l535 -535q-47 -33 -103.5 -52t-118.5 -19q-79 0 -149 30t-122.5 82.5
t-82.5 122.5t-30 149v0z" />
    <glyph glyph-name="uniEA0F" unicode="&#xea0f;" 
d="M1015 137v0v0l-311 311l311 311v0v0q2 2 4 5t3 6q3 9 1.5 18t-8.5 16l-147 147q-7 7 -16 8.5t-18 -1.5q-3 -1 -6 -3t-5 -4v0v0l-311 -311l-311 311v0v0q-2 2 -5 4t-6 3q-9 3 -18 1.5t-16 -8.5l-147 -147q-7 -7 -8.5 -16t1.5 -18q1 -3 3 -6t4 -5v0v0l311 -311l-311 -311v0
v0q-2 -2 -4 -5t-3 -6q-3 -9 -1.5 -18t8.5 -16l147 -147q7 -7 16 -8.5t18 1.5q3 1 6 3t5 4v0v0l311 311l311 -311v0v0q2 -2 5 -4t6 -3q9 -3 18 -1.5t16 8.5l147 147q7 7 8.5 16t-1.5 18q-1 3 -3 6t-4 5z" />
    <glyph glyph-name="uniEA10" unicode="&#xea10;" 
d="M864 832l-480 -480l-224 224l-160 -160l384 -384l640 640z" />
    <glyph glyph-name="uniEA11" unicode="&#xea11;" 
d="M397 42l-397 392l197 194l200 -197l430 423l197 -195l-627 -617v0zM108 434l289 -285l519 510l-89 88l-430 -423l-200 198l-89 -88v0z" />
    <glyph glyph-name="uniEA13" unicode="&#xea13;" 
d="M384 448h-320v128h320v128l192 -192l-192 -192v128zM1024 960v-832l-384 -192v192h-384v256h64v-192h320v576l256 128h-576v-256h-64v320h768z" />
    <glyph glyph-name="uniEA14" unicode="&#xea14;" 
d="M768 320v128h-320v128h320v128l192 -192zM704 384v-256h-320v-192l-384 192v832h704v-320h-64v256h-512l256 -128v-576h256v192h64z" />
    <glyph glyph-name="uniEA2E" unicode="&#xea2e;" 
d="M890 794q-35 38 -77.5 69t-90.5 52.5t-101 33t-109 11.5q-106 0 -199.5 -40t-163 -109.5t-109.5 -163t-40 -199.5h96q0 86 32.5 162t89 132.5t132.5 89t162 32.5q46 0 89.5 -9.5t83 -27.5t74 -43.5t63.5 -57.5l-150 -150h352v352l-134 -134v0zM928 448q0 -86 -32.5 -162
t-89 -132.5t-132.5 -89t-162 -32.5q-46 0 -89.5 9.5t-83 27.5t-74 43.5t-63.5 57.5l150 150h-352v-352l134 134q35 -38 77.5 -69t90.5 -52.5t101 -33t109 -11.5q106 0 199.5 40t163 109.5t109.5 163t40 199.5h-96z" />
    <glyph glyph-name="uniEA39" unicode="&#xea39;" 
d="M877 173l-530 531h229q27 0 45.5 18.5t18.5 45.5t-18.5 45.5t-45.5 18.5h-384q-19 0 -35.5 -11t-23.5 -29q-3 -5 -4 -11.5t-1 -12.5v0v-384q0 -27 18.5 -45.5t45.5 -18.5t45.5 18.5t18.5 45.5v229l531 -530q9 -10 21 -14.5t24 -4.5t24 4.5t21 14.5q19 18 19 45t-19 45z
" />
    <glyph glyph-name="uniEA3A" unicode="&#xea3a;" 
d="M877 557l-320 320q-18 19 -45 19t-45 -19l-320 -320q-19 -18 -19 -45t19 -45q18 -19 45 -19t45 19l211 210v-613q0 -27 18.5 -45.5t45.5 -18.5t45.5 18.5t18.5 45.5v613l211 -210q9 -10 21 -14.5t24 -4.5t24 4.5t21 14.5q19 18 19 45t-19 45v0z" />
    <glyph glyph-name="uniEA3B" unicode="&#xea3b;" 
d="M237 83l531 530v-229q0 -27 18.5 -45.5t45.5 -18.5t45.5 18.5t18.5 45.5v384q0 19 -11 35.5t-29 23.5q-5 3 -11.5 4t-12.5 1v0h-384q-27 0 -45.5 -18.5t-18.5 -45.5t18.5 -45.5t45.5 -18.5h229l-530 -531q-10 -9 -14.5 -21t-4.5 -24t4.5 -24t14.5 -21q18 -19 45 -19
t45 19v0z" />
    <glyph glyph-name="uniEA3C" unicode="&#xea3c;" 
d="M621 83l320 320q19 18 19 45t-19 45l-320 320q-18 19 -45 19t-45 -19q-19 -18 -19 -45t19 -45l210 -211h-613q-27 0 -45.5 -18.5t-18.5 -45.5t18.5 -45.5t45.5 -18.5h613l-210 -211q-10 -9 -14.5 -21t-4.5 -24t4.5 -24t14.5 -21q18 -19 45 -19t45 19z" />
    <glyph glyph-name="uniEA3D" unicode="&#xea3d;" 
d="M147 723l530 -531h-229q-27 0 -45.5 -18.5t-18.5 -45.5t18.5 -45.5t45.5 -18.5h384q19 0 35.5 11t23.5 29q3 5 4 11.5t1 12.5v0v384q0 27 -18.5 45.5t-45.5 18.5t-45.5 -18.5t-18.5 -45.5v-229l-531 530q-9 10 -21 14.5t-24 4.5t-24 -4.5t-21 -14.5q-19 -18 -19 -45
t19 -45v0z" />
    <glyph glyph-name="uniEA3E" unicode="&#xea3e;" 
d="M877 339l-320 -320q-18 -19 -45 -19t-45 19l-320 320q-19 18 -19 45t19 45q18 19 45 19t45 -19l211 -210v613q0 27 18.5 45.5t45.5 18.5t45.5 -18.5t18.5 -45.5v-613l211 210q9 10 21 14.5t24 4.5t24 -4.5t21 -14.5q19 -18 19 -45t-19 -45z" />
    <glyph glyph-name="uniEA3F" unicode="&#xea3f;" 
d="M787 813l-531 -530v229q0 27 -18.5 45.5t-45.5 18.5t-45.5 -18.5t-18.5 -45.5v-384q0 -19 11 -35.5t29 -23.5q5 -3 11.5 -4t12.5 -1v0h384q27 0 45.5 18.5t18.5 45.5t-18.5 45.5t-45.5 18.5h-229l530 531q10 9 14.5 21t4.5 24t-4.5 24t-14.5 21q-18 19 -45 19t-45 -19v0z
" />
    <glyph glyph-name="uniEA40" unicode="&#xea40;" 
d="M403 83l-320 320q-19 18 -19 45t19 45l320 320q18 19 45 19t45 -19q19 -18 19 -45t-19 -45l-210 -211h613q27 0 45.5 -18.5t18.5 -45.5t-18.5 -45.5t-45.5 -18.5h-613l210 -211q10 -9 14.5 -21t4.5 -24t-4.5 -24t-14.5 -21q-18 -19 -45 -19t-45 19z" />
    <glyph glyph-name="uniEA41" unicode="&#xea41;" 
d="M0 448q0 -106 40 -199.5t109.5 -163t163 -109.5t199.5 -40t199.5 40t163 109.5t109.5 163t40 199.5t-40 199.5t-109.5 163t-163 109.5t-199.5 40t-199.5 -40t-163 -109.5t-109.5 -163t-40 -199.5zM928 448q0 -86 -32.5 -162t-89 -132.5t-132.5 -89t-162 -32.5t-162 32.5
t-132.5 89t-89 132.5t-32.5 162t32.5 162t89 132.5t132.5 89t162 32.5t162 -32.5t132.5 -89t89 -132.5t32.5 -162zM707 291l90 90l-285 286l-285 -286l90 -90l195 194z" />
    <glyph glyph-name="uniEA42" unicode="&#xea42;" 
d="M512 960q-106 0 -199.5 -40t-163 -109.5t-109.5 -163t-40 -199.5t40 -199.5t109.5 -163t163 -109.5t199.5 -40t199.5 40t163 109.5t109.5 163t40 199.5t-40 199.5t-109.5 163t-163 109.5t-199.5 40zM512 32q-86 0 -162 32.5t-132.5 89t-89 132.5t-32.5 162t32.5 162
t89 132.5t132.5 89t162 32.5t162 -32.5t132.5 -89t89 -132.5t32.5 -162t-32.5 -162t-89 -132.5t-132.5 -89t-162 -32.5zM355 253l90 -90l286 285l-286 285l-90 -90l194 -195z" />
    <glyph glyph-name="uniEA43" unicode="&#xea43;" 
d="M1024 448q0 106 -40 199.5t-109.5 163t-163 109.5t-199.5 40t-199.5 -40t-163 -109.5t-109.5 -163t-40 -199.5t40 -199.5t109.5 -163t163 -109.5t199.5 -40t199.5 40t163 109.5t109.5 163t40 199.5zM96 448q0 86 32.5 162t89 132.5t132.5 89t162 32.5t162 -32.5
t132.5 -89t89 -132.5t32.5 -162t-32.5 -162t-89 -132.5t-132.5 -89t-162 -32.5t-162 32.5t-132.5 89t-89 132.5t-32.5 162zM317 605l-90 -90l285 -286l285 286l-90 90l-195 -194z" />
    <glyph glyph-name="uniEA44" unicode="&#xea44;" 
d="M512 -64q106 0 199.5 40t163 109.5t109.5 163t40 199.5t-40 199.5t-109.5 163t-163 109.5t-199.5 40t-199.5 -40t-163 -109.5t-109.5 -163t-40 -199.5t40 -199.5t109.5 -163t163 -109.5t199.5 -40zM512 864q86 0 162 -32.5t132.5 -89t89 -132.5t32.5 -162t-32.5 -162
t-89 -132.5t-132.5 -89t-162 -32.5t-162 32.5t-132.5 89t-89 132.5t-32.5 162t32.5 162t89 132.5t132.5 89t162 32.5zM669 643l-90 90l-286 -285l286 -285l90 90l-194 195z" />
    <glyph glyph-name="uniEA4C" unicode="&#xea4c;" 
d="M320 192v768h-128v-768h-160l224 -224l224 224h-160zM448 384h576v-128h-576v128zM448 576h448v-128h-448v128zM448 768h320v-128h-320v128zM448 960h192v-128h-192v128z" />
    <glyph glyph-name="uniEA4D" unicode="&#xea4d;" 
d="M320 192v768h-128v-768h-160l224 -224l224 224h-160zM448 960h576v-128h-576v128zM448 768h448v-128h-448v128zM448 576h320v-128h-320v128zM448 384h192v-128h-192v128z" />
    <glyph glyph-name="uniEA52" unicode="&#xea52;" 
d="M896 960h-768q-53 0 -90.5 -37.5t-37.5 -90.5v-768q0 -53 37.5 -90.5t90.5 -37.5h768q53 0 90.5 37.5t37.5 90.5v768q0 53 -37.5 90.5t-90.5 37.5zM448 165l-237 238l90 90l147 -146l307 306l90 -90z" />
    <glyph glyph-name="uniEA53" unicode="&#xea53;" 
d="M896 960h-768q-53 0 -90.5 -37.5t-37.5 -90.5v-768q0 -53 37.5 -90.5t90.5 -37.5h768q53 0 90.5 37.5t37.5 90.5v768q0 53 -37.5 90.5t-90.5 37.5zM896 64h-768v768h768v-768z" />
    <glyph glyph-name="uniEA54" unicode="&#xea54;" 
d="M512 960q-106 0 -199.5 -40t-163 -109.5t-109.5 -163t-40 -199.5t40 -199.5t109.5 -163t163 -109.5t199.5 -40t199.5 40t163 109.5t109.5 163t40 199.5t-40 199.5t-109.5 163t-163 109.5t-199.5 40zM512 64q-80 0 -149.5 30t-122 82.5t-82.5 122t-30 149.5t30 149.5
t82.5 122t122 82.5t149.5 30t149.5 -30t122 -82.5t82.5 -122t30 -149.5t-30 -149.5t-82.5 -122t-122 -82.5t-149.5 -30zM320 448q0 80 56 136t136 56t136 -56t56 -136t-56 -136t-136 -56t-136 56t-56 136z" />
    <glyph glyph-name="uniEA55" unicode="&#xea55;" 
d="M512 960q-106 0 -199.5 -40t-163 -109.5t-109.5 -163t-40 -199.5t40 -199.5t109.5 -163t163 -109.5t199.5 -40t199.5 40t163 109.5t109.5 163t40 199.5t-40 199.5t-109.5 163t-163 109.5t-199.5 40zM512 320q-53 0 -90.5 37.5t-37.5 90.5t37.5 90.5t90.5 37.5t90.5 -37.5
t37.5 -90.5t-37.5 -90.5t-90.5 -37.5z" />
    <glyph glyph-name="uniEA56" unicode="&#xea56;" 
d="M512 960q-106 0 -199.5 -40t-163 -109.5t-109.5 -163t-40 -199.5t40 -199.5t109.5 -163t163 -109.5t199.5 -40t199.5 40t163 109.5t109.5 163t40 199.5t-40 199.5t-109.5 163t-163 109.5t-199.5 40zM512 64q-80 0 -149.5 30t-122 82.5t-82.5 122t-30 149.5t30 149.5
t82.5 122t122 82.5t149.5 30t149.5 -30t122 -82.5t82.5 -122t30 -149.5t-30 -149.5t-82.5 -122t-122 -82.5t-149.5 -30z" />
  </font>
</defs>
</svg>
